<svg id="Capa_1" data-name="Capa 1" xmlns="http://www.w3.org/2000/svg" viewBox="0 0 269.16 228.61"><defs><style>.cls-1{fill:#fff;}.cls-2{fill:#767e8c;}</style></defs><title>lupa-search-bar-ruz</title><path class="cls-1" d="M97,344.87l-0.83-2.15H96.06a9.11,9.11,0,0,1-.93,1.1,4.36,4.36,0,0,1-2.26,1.2,8,8,0,0,1-1.59.14,5.09,5.09,0,0,1-1.79-.3,3.83,3.83,0,0,1-1.42-.92,4.27,4.27,0,0,1-.94-1.56,6.58,6.58,0,0,1-.34-2.23,4.32,4.32,0,0,1,1.61-3.72,8.67,8.67,0,0,1,4.83-1.32l2.52-.08v-1.19a1.77,1.77,0,0,0-.57-1.44,2.43,2.43,0,0,0-1.59-.47,6.75,6.75,0,0,0-2,.3,12.22,12.22,0,0,0-1.95.79l-1.4-2.86a11.25,11.25,0,0,1,2.63-1,11.79,11.79,0,0,1,3-.38,6.67,6.67,0,0,1,4.54,1.39,5.33,5.33,0,0,1,1.58,4.22v10.55H97Zm-1.27-7.33-1.43.06a5.16,5.16,0,0,0-1.46.23,2.59,2.59,0,0,0-1,.53,1.93,1.93,0,0,0-.52.79,3.06,3.06,0,0,0-.16,1,1.79,1.79,0,0,0,.48,1.41A1.86,1.86,0,0,0,93,342a2.93,2.93,0,0,0,1.1-.21,2.44,2.44,0,0,0,.88-0.61,2.87,2.87,0,0,0,.59-1,4,4,0,0,0,.21-1.35v-1.3Z" transform="translate(-23.71 -119.79)"/><path class="cls-1" d="M108.8,344.87h-4.32v-22h4.32v22Z" transform="translate(-23.71 -119.79)"/><path class="cls-1" d="M120.29,345.15a9.49,9.49,0,0,1-3.13-.5,6.62,6.62,0,0,1-2.46-1.49,6.76,6.76,0,0,1-1.61-2.52,10.14,10.14,0,0,1-.57-3.58,11.41,11.41,0,0,1,.52-3.64,7.25,7.25,0,0,1,1.46-2.6,6,6,0,0,1,2.27-1.56,7.92,7.92,0,0,1,2.94-.52,8,8,0,0,1,2.84.47,5.73,5.73,0,0,1,2.15,1.39,6.21,6.21,0,0,1,1.36,2.26,9.15,9.15,0,0,1,.47,3.07V338h-9.66a5.3,5.3,0,0,0,.29,1.64,3.49,3.49,0,0,0,.74,1.23,3.19,3.19,0,0,0,1.15.77,4.12,4.12,0,0,0,1.54.27,11.43,11.43,0,0,0,1.37-.08,9.79,9.79,0,0,0,1.25-.23,10.22,10.22,0,0,0,1.2-.39q0.59-.23,1.22-0.55V344a9,9,0,0,1-1.14.5,10,10,0,0,1-1.21.35,10.54,10.54,0,0,1-1.37.21Q121.16,345.15,120.29,345.15Zm-0.55-13.34a2.5,2.5,0,0,0-1.9.81,4,4,0,0,0-.87,2.54h5.51a5.3,5.3,0,0,0-.18-1.33,3.08,3.08,0,0,0-.51-1.05,2.4,2.4,0,0,0-.85-0.7A2.63,2.63,0,0,0,119.73,331.81Z" transform="translate(-23.71 -119.79)"/><path class="cls-1" d="M138.44,328.74h0.38l0.4,0,0.35,0,0.25,0v4l-0.31-.06-0.42,0-0.43,0H138.3a5.28,5.28,0,0,0-1.54.21,3,3,0,0,0-1.2.69,3.13,3.13,0,0,0-.78,1.25,5.66,5.66,0,0,0-.28,1.89v8.06h-4.32V329h3.27l0.64,2.38h0.21a8,8,0,0,1,.74-1.1,4.34,4.34,0,0,1,.88-0.84,3.87,3.87,0,0,1,1.1-.54A4.77,4.77,0,0,1,138.44,328.74Z" transform="translate(-23.71 -119.79)"/><path class="cls-1" d="M149.2,341.71a5,5,0,0,0,1.21-.14,12,12,0,0,0,1.17-.35v3.21a6.54,6.54,0,0,1-1.51.52,8.82,8.82,0,0,1-2,.21,7.35,7.35,0,0,1-1.93-.24,3.64,3.64,0,0,1-1.54-.84,4.08,4.08,0,0,1-1-1.61,7.39,7.39,0,0,1-.38-2.54v-7.63h-2.07v-1.83l2.38-1.44,1.25-3.34h2.76V329h3.85v3.24h-3.85v7.63a1.82,1.82,0,0,0,.45,1.36A1.64,1.64,0,0,0,149.2,341.71Z" transform="translate(-23.71 -119.79)"/><path class="cls-1" d="M168.47,310.32c4.72,5.14,6.37,11.45,4.38,18.67a1.78,1.78,0,0,1-1.93,1.56,1.67,1.67,0,0,1-1.43-2.2c0.21-1.19.54-2.36,0.64-3.56a15.55,15.55,0,0,0-19.46-16.41,10.31,10.31,0,0,1-1.12.26,1.63,1.63,0,0,1-2-1.23,1.54,1.54,0,0,1,1-2,19.37,19.37,0,0,1,3.77-.88C158.48,303.92,163.72,305.75,168.47,310.32Z" transform="translate(-23.71 -119.79)"/><path class="cls-1" d="M163.21,314.93a13.69,13.69,0,0,1,3.68,12.9,4.67,4.67,0,0,1-.33,1,1.66,1.66,0,0,1-2,.91,1.68,1.68,0,0,1-1.2-1.83c0.11-.85.31-1.68,0.37-2.53a10.31,10.31,0,0,0-11.85-11c-0.52.08-1,.2-1.57,0.27a1.71,1.71,0,0,1-2-1.16,1.65,1.65,0,0,1,1.22-2.12,13.5,13.5,0,0,1,9.41.58A11.68,11.68,0,0,1,163.21,314.93Z" transform="translate(-23.71 -119.79)"/><path class="cls-1" d="M158.32,319.77a7,7,0,0,1,1.48,7.54,4.5,4.5,0,0,1-.68,1.12,1.64,1.64,0,0,1-2.85-1.33,10.13,10.13,0,0,1,.38-1.26,3.35,3.35,0,0,0-.82-3.57,3.29,3.29,0,0,0-3.57-.79c-0.34.11-.66,0.26-1,0.34a1.64,1.64,0,0,1-2-1,1.67,1.67,0,0,1,.77-2.12,6.76,6.76,0,0,1,7.12.17A13.84,13.84,0,0,1,158.32,319.77Z" transform="translate(-23.71 -119.79)"/><path class="cls-1" d="M54.82,344.87l-4.54-16.24H50.15q0.08,1.3.14,2.52,0,0.52,0,1.08c0,0.37,0,.73,0,1.09s0,0.7,0,1,0,0.63,0,.89v9.63H46.5v-20.7h6L56.95,340H57l4.76-15.83h6v20.7H63.67v-9.8q0-.37,0-0.84t0-1c0-.35,0-0.7,0-1.06s0-.71,0-1q0.06-1.19.1-2.48H63.76l-4.9,16.21h-4Z" transform="translate(-23.71 -119.79)"/><path class="cls-1" d="M84.32,339.12a6.31,6.31,0,0,1-.47,2.5,5.13,5.13,0,0,1-1.39,1.9,6.36,6.36,0,0,1-2.24,1.21,9.94,9.94,0,0,1-3,.42,13.29,13.29,0,0,1-2.9-.31,10.48,10.48,0,0,1-2.58-.93v-4.08l1.37,0.63q0.69,0.3,1.41.54a11.41,11.41,0,0,0,1.43.38,7.36,7.36,0,0,0,1.42.14,4.16,4.16,0,0,0,1.24-.16,2.2,2.2,0,0,0,.83-0.45,1.74,1.74,0,0,0,.47-0.69,2.56,2.56,0,0,0,.15-0.89,2.08,2.08,0,0,0-.25-1,3.14,3.14,0,0,0-.69-0.83,7,7,0,0,0-1.08-.76q-0.63-.37-1.41-0.78t-1.46-.82a7.82,7.82,0,0,1-1.52-1.2,6.16,6.16,0,0,1-1.2-1.73,5.62,5.62,0,0,1-.48-2.43,6.37,6.37,0,0,1,.46-2.48,5.07,5.07,0,0,1,1.31-1.86,5.73,5.73,0,0,1,2.06-1.15,8.7,8.7,0,0,1,2.71-.4,10.61,10.61,0,0,1,1.47.1,11.91,11.91,0,0,1,1.42.28,13.62,13.62,0,0,1,1.41.45q0.71,0.27,1.46.62l-1.42,3.41q-0.64-.3-1.19-0.52t-1.08-.38a7.84,7.84,0,0,0-1-.23,6.61,6.61,0,0,0-1-.08,2.29,2.29,0,0,0-1.69.59,2.11,2.11,0,0,0-.59,1.56,2.29,2.29,0,0,0,.18.93,2.26,2.26,0,0,0,.57.76,6.34,6.34,0,0,0,1,.72q0.62,0.37,1.49.84,1.06,0.57,2,1.15a7.85,7.85,0,0,1,1.54,1.3A5.26,5.26,0,0,1,84,337,5.81,5.81,0,0,1,84.32,339.12Z" transform="translate(-23.71 -119.79)"/><path class="cls-1" d="M40.68,342.05c-1.49,1.23-1.48,2-3.53,2a9.28,9.28,0,0,1-.32-18.55c2.16,0,2.84.74,4.42,2l1.32-2.6a10.79,10.79,0,0,0-3-1.26,0.12,0.12,0,0,1-.08-0.08l-0.71-2.19-0.11-.09a12.47,12.47,0,0,0-2.49-.09l-1,.09a0.09,0.09,0,0,0-.09.08l-0.71,2.2a0.12,0.12,0,0,1-.09.08,10.8,10.8,0,0,0-3.14,1.34,0.11,0.11,0,0,1-.11,0l-2-1a0.1,0.1,0,0,0-.11,0,13.57,13.57,0,0,0-2.46,2.53,0.13,0.13,0,0,0,0,.13l1,2.07a0.12,0.12,0,0,1,0,.12,11.43,11.43,0,0,0-1.3,3.24l-0.07.08-2.14.73a0.13,0.13,0,0,0-.09.1,13,13,0,0,0-.1,2.22c0,0.45.07,0.91,0.1,1.36a0.09,0.09,0,0,0,.08.09L26,337.44l0.07,0.08a11.44,11.44,0,0,0,1.3,3.23,0.13,0.13,0,0,1,0,.12l-1,2.07a0.11,0.11,0,0,0,0,.12,13.56,13.56,0,0,0,2.46,2.53,0.12,0.12,0,0,0,.12,0l2-1a0.12,0.12,0,0,1,.12,0,10.8,10.8,0,0,0,3.14,1.34,0.12,0.12,0,0,1,.08.08l0.71,2.2a0.09,0.09,0,0,0,.08.08l1.27,0.11h0.89l0.35,0,1-.09a0.09,0.09,0,0,0,.09-0.08L39.47,346a0.23,0.23,0,0,1,.09-0.08l2.06-1.26Z" transform="translate(-23.71 -119.79)"/><path class="cls-1" d="M36.69,327.23a4.33,4.33,0,0,0-2.16.53A4.5,4.5,0,0,0,33,329.27a7.56,7.56,0,0,0-1,2.4,14,14,0,0,0-.33,3.17A15.43,15.43,0,0,0,32,338a7.06,7.06,0,0,0,.91,2.35,4.06,4.06,0,0,0,1.56,1.45,4.85,4.85,0,0,0,2.27.5,10.06,10.06,0,0,0,2.45-.31,21.77,21.77,0,0,0,2.67-.87v4a12.54,12.54,0,0,1-1.3.52,11.62,11.62,0,0,1-1.32.35,13.45,13.45,0,0,1-1.38.21q-0.71.07-1.52,0.07a9.1,9.1,0,0,1-4-.83,7.54,7.54,0,0,1-2.81-2.32,10.19,10.19,0,0,1-1.65-3.61,19.12,19.12,0,0,1-.53-4.7,16.61,16.61,0,0,1,.62-4.66,10.76,10.76,0,0,1,1.81-3.65,8.25,8.25,0,0,1,2.95-2.38,9.16,9.16,0,0,1,4-.85,11.11,11.11,0,0,1,3,.42,14.17,14.17,0,0,1,2.87,1.16l-1.37,3.85a21.56,21.56,0,0,0-2.26-1A6.14,6.14,0,0,0,36.69,327.23Z" transform="translate(-23.71 -119.79)"/><path class="cls-2" d="M278.18,310.83a14.41,14.41,0,0,1-10.34-4.37L228.47,267.2a80.78,80.78,0,1,1,20.78-20.77l39.37,39.38A14.69,14.69,0,0,1,278.18,310.83ZM182.66,149.18a51.43,51.43,0,1,0,51.43,51.43A51.5,51.5,0,0,0,182.66,149.18Z" transform="translate(-23.71 -119.79)"/></svg>