<?xml version="1.0" encoding="utf-8"?>
<!-- Generator: Adobe Illustrator 19.2.1, SVG Export Plug-In . SVG Version: 6.00 Build 0)  -->
<svg version="1.1" id="Capa_1" xmlns="http://www.w3.org/2000/svg" xmlns:xlink="http://www.w3.org/1999/xlink" x="0px" y="0px"
	 viewBox="0 0 198.2 200" style="enable-background:new 0 0 198.2 200;" xml:space="preserve">
<style type="text/css">
	.st0{fill:#767E8C;}
</style>
<title>lupa-search-bar-ruz</title>
<path class="st0" d="M179.8,195.5c-3.9,0-7.6-1.6-10.3-4.4l-39.4-39.3C93.3,177.1,43,167.8,17.8,131S1.8,43.9,38.6,18.7
	s87.1-16,112.3,20.8c19,27.6,19,64,0,91.6l39.4,39.4c5.7,5.8,5.7,15.1-0.1,20.8C187.3,194,183.6,195.5,179.8,195.5z M84.3,33.9
	c-28.4,0-51.4,23-51.4,51.4s23,51.4,51.4,51.4s51.4-23,51.4-51.4l0,0C135.6,56.9,112.6,33.9,84.3,33.9z"/>
</svg>
